<?xml version="1.0" encoding="UTF-8"?>
<svg id="Layer_1" data-name="Layer 1" xmlns="http://www.w3.org/2000/svg" viewBox="0 0 516.99 429.56">
  <defs>
    <style>
      .cls-1 {
        fill: #00798c;
      }
    </style>
  </defs>
  <path class="cls-1" d="M280.63,429.56H92.29c-.02-.77-.04-1.54-.04-2.31V2.57c0-.43-.02-.87,0-1.3.02-.33.1-.65.14-.92.66-.39,1.3-.25,1.91-.25,48.6,0,97.2,0,145.81,0,.39,0,.77,0,1.16,0,.61,0,1.14.22,1.56.65.5.52,1.03,1.03,1.44,1.61,1.34,1.88,2.67,3.78,3.94,5.71,1.75,2.66,3.38,5.39,5.17,8.02,4.43,6.49,8.67,13.1,12.56,19.94,5.29,9.32,9.91,18.95,13.57,29.03,3.13,8.62,5.5,17.45,7.04,26.49.53,3.08,1.04,6.18,1.01,9.33-.02,1.98-.01,3.95.02,5.93.05,2.65.11,5.3.5,7.93.3,2.01.81,3.96,1.76,5.78.94,1.79,2.25,3.24,4,4.27,2.17,1.29,4.56,1.84,7.05,1.83,2.4-.01,4.65-.72,6.7-2.01,1.77-1.12,3.29-2.51,4.64-4.11,1.85-2.18,3.34-4.6,4.64-7.14,2.04-3.95,3.58-8.1,4.92-12.33,1.67-5.29,2.93-10.68,4.03-16.11.95-4.72,1.73-9.48,2.1-14.29.1-1.34.26-2.69.31-4.03.13-3.37.31-6.74.3-10.11-.01-3.52-.03-7.04-.36-10.55-.16-1.73-.2-3.47-.4-5.19-.4-3.54-.81-7.08-1.34-10.61-.67-4.38-1.43-8.74-2.22-13.1-.84-4.59-1.76-9.17-2.63-13.76-.05-.26-.01-.55-.01-.9.36-.02.64-.08.92-.05,1.15.1,2.3.19,3.45.36,3.62.52,7.24,1.07,10.85,1.63,5.47.85,10.89,1.95,16.29,3.17,16.35,3.7,32.18,8.94,47.42,15.96,7.8,3.59,15.37,7.61,22.68,12.12.4.25.88.41,1.14.96-.2.44-.41.91-.65,1.38-3.29,6.56-6.11,13.31-8.14,20.37-1.21,4.21-2.22,8.48-3.34,12.71-2.63,9.97-5.65,19.82-9.3,29.47-4.01,10.61-8.74,20.88-14.54,30.65-6.83,11.5-14.94,22-24.59,31.29-2.99,2.88-6.05,5.67-9.39,8.14-.97.72-1.89,1.5-2.8,2.29-1.03.88-1.93,1.88-2.69,3.01-1.17,1.75-1.69,3.67-1.45,5.76.14,1.25.48,2.46,1,3.61,1.21,2.66,3.08,4.76,5.46,6.42,1.94,1.35,4.08,2.1,6.45,2.29,2.19.18,4.34-.02,6.46-.47,3.39-.72,6.77-1.48,10.12-2.36,11.42-2.99,22.03-7.83,31.99-14.14,9.49-6.01,18.11-13.11,26.15-20.93,7.09-6.9,13.76-14.19,20.28-21.63,7.37-8.41,14.65-16.91,21.96-25.38,2.65-3.07,5.33-6.1,8.3-8.87.34-.32.62-.74,1.24-.86.27.42.56.85.83,1.3,7.27,12.16,13.14,24.97,17.65,38.41,5.54,16.52,8.95,33.47,10.48,50.82.12,1.34.25,2.69.34,4.03.17,2.55.35,5.1.45,7.65.09,2.31.06,4.63.09,6.94.01.62.01,1.25.3,1.83v8.1c-.28.63-.29,1.31-.31,1.98-.03,1.93-.04,3.86-.08,5.78-.01.32-.09.64-.14.99-.97.14-1.87.28-2.77.4-3.05.42-6.11.77-9.15,1.27-3.41.57-6.82,1.23-10.2,1.96-6.17,1.33-12.24,3.02-18.1,5.4-3.84,1.55-7.62,3.25-11.42,4.87-10.37,4.42-20.88,8.46-31.66,11.75-10.84,3.31-21.83,5.87-33.08,7.27-3.59.45-7.18.79-10.78,1.02-3.27.21-6.55.26-9.83.27-2.65.01-5.3-.16-7.95-.25-.05,0-.1,0-.14-.01-2.82-.31-5.63-.72-8.42-1.24-4.68-.87-9.34-1.87-14.1-2.29-3.06-.27-6.06-.17-9.06.42-2.04.41-3.99,1.11-5.72,2.31-1.33.92-2.45,2.03-3.24,3.45-.78,1.39-1.1,2.85-.86,4.45.22,1.46.8,2.77,1.55,4.02,1.02,1.71,2.3,3.21,3.68,4.63,1.95,2.01,4.08,3.82,6.3,5.53,4.55,3.5,9.33,6.67,14.13,9.81,2.78,1.82,5.68,3.45,8.63,4.99,13.96,7.33,28.9,11.62,44.4,14.14,3.7.6,7.43,1.06,11.16,1.51,3.44.41,6.89.76,10.34,1.07,2.78.25,5.57.43,8.36.58,3.94.22,7.89.4,11.84.57,2.84.12,5.68.2,8.53.28,3.47.1,6.94.05,10.41.3,1.87.14,3.75.21,5.63.28,3.32.14,6.63.47,9.92.89,2.44.31,4.86.68,7.26,1.19.22.05.42.15.7.25-.17.4-.28.71-.43,1-.59,1.1-1.19,2.2-1.81,3.29-9.95,17.54-22.31,33.16-37.2,46.78-12.59,11.52-26.49,21.16-41.49,29.26-4.07,2.2-8.27,4.14-12.26,6.49-.58.34-1.21.59-1.83.86-1.84.79-3.67.75-5.44-.17-1.24-.64-2.43-1.37-3.63-2.09-1.24-.74-2.43-1.57-3.69-2.28-19.66-11-38.7-22.97-57.12-35.94-5.01-3.53-9.76-7.39-14.23-11.59-8.05-7.56-15.1-15.96-21.37-25.03-2.82-4.08-5.45-8.29-8.16-12.45-1.42-2.18-2.9-4.32-4.64-6.27-1.52-1.7-3.2-3.22-5.18-4.35-2.91-1.66-5.98-2.59-9.39-2.13-4.55.63-7.59,3.06-9.03,7.43-.92,2.79-1.14,5.67-.98,8.57.18,3.13.43,6.25.73,9.37.27,2.78.57,5.56.98,8.32.71,4.81,1.64,9.59,2.81,14.31,3.65,14.72,9.5,28.49,17.82,41.18,4.7,7.18,9.72,14.14,14.77,21.08,3.21,4.4,6.43,8.79,9.64,13.2.26.36.7.67.62,1.25-.22.04-.41.09-.6.1-2.5.17-5,.37-7.5.48-4,.17-8,.28-11.99.43-.55.04-1.07.18-1.59.26Z"/>
  <path class="cls-1" d="M0,429.56c.05-.57.13-1.14.13-1.72,0-5.11,0-10.22,0-15.33v-.72c0-1.45,0-1.46,1.3-2.07,7.35-3.5,14.71-6.99,22.06-10.48,1.31-.62,2.61-1.23,3.91-1.87.34-.16.64-.39.96-.58-.25-.59-.76-.68-1.18-.88-2.04-.98-4.09-1.94-6.14-2.91-6.49-3.07-12.97-6.14-19.46-9.21-1.49-.7-1.46-.6-1.46-2.26,0-5.21,0-10.41,0-15.62,0-.52-.12-1.07.25-1.53,1.21-.2,36.2-.29,52.48-.14.42,0,.85.05,1.34.08.06.33.14.61.14.88.01,4.53.01,9.06,0,13.59,0,.23-.07.47-.1.71-.52.31-1.06.19-1.57.19-5.4.01-10.8.01-16.2.01h-9.98c-.46,0-.94-.08-1.42.15.17.57.65.63,1.01.79,2.41,1.1,4.83,2.17,7.25,3.25,4.8,2.14,9.59,4.27,14.39,6.41.43.19.85.42,1.23.61.18,1.25.19,10.17.02,11.58-.43.2-.9.44-1.37.66-6.9,3.08-13.8,6.17-20.71,9.25-.48.22-.97.42-1.44.66-.15.07-.25.24-.47.47.31.09.47.16.64.17.43.02.87.02,1.3.02h25.46c.57,0,1.14.02,1.69.03.38.56.28,1.1.28,1.61.01,3.76,0,7.52.01,11.28,0,.96.01,1.93.02,2.89-18.13.03-36.26.03-54.39.03Z"/>
  <path class="cls-1" d="M27.86,125.25c-1.41-.2-2.71-.08-4-.1-1.3-.02-2.6-.01-3.9-.01H.58c-.53-.48-.41-.99-.41-1.45,0-2.6,0-5.21,0-7.81,0-1.74,0-3.47,0-5.21,0-.47-.1-.97.29-1.46.22-.03.5-.09.77-.1,6.85-.21,51.53-.09,52.96.15.29.45.19.99.2,1.5.01,2.7.01,5.4.01,8.1v5.08c-.52.43-.99.83-1.48,1.21-8.24,6.36-16.49,12.71-24.73,19.07-.44.34-.96.62-1.28,1.24.3.09.52.21.74.22.48.04.96.03,1.44.03h23.14c.62,0,1.24.04,1.78.06.52.52.37,1.08.37,1.59.02,2.6.01,5.21.01,7.81,0,1.69.01,3.37-.01,5.06,0,.47.1.96-.22,1.46-.14.04-.32.11-.5.13-1.84.13-52.27.02-53.2-.11-.43-.43-.29-.99-.3-1.5,0-2.8,0-5.59,0-8.39,0-1.2.05-2.41-.02-3.61-.05-.93.3-1.52,1.03-2.06,3.46-2.62,6.89-5.27,10.32-7.92,5.12-3.94,10.24-7.87,15.35-11.82.37-.27.84-.47,1.04-1.16Z"/>
  <path class="cls-1" d="M54.23,276.3c.06.49.13.81.14,1.14.16,4.91.07,14.93-.16,16.25-.23.06-.5.17-.77.2-.33.04-.67.02-1.01.02H2.1c-.57,0-1.16.1-1.75-.2-.06-.2-.15-.42-.18-.65-.03-.33-.02-.67-.02-1.01,0-8-.03-16.01,0-24.01.02-3.47.3-6.93,1.34-10.28.47-1.53,1.06-3,1.85-4.38,2.45-4.29,6.04-7.11,10.87-8.17,4.46-.97,8.91-.82,13.26.65,3.48,1.17,6.33,3.23,8.48,6.23.2.27.4.55.61.81.06.07.15.11.28.19.53,0,.93-.38,1.37-.64,4.29-2.59,8.57-5.19,12.87-7.78.98-.59,1.92-1.27,2.96-1.71.36.12.32.39.32.61.01.67.01,1.35.01,2.02v16.81c-.45.61-1.04.75-1.55.99-3.58,1.67-7.17,3.31-10.76,4.97-.17.08-.34.19-.52.24-1.05.3-1.41.98-1.35,2.05.07,1.3.02,2.6.02,3.9,0,.29,0,.58.03.87.06.55.27.77.83.81.43.03.87.03,1.3.03h10.12c.52,0,1.04.02,1.73.04ZM13.62,275.89c.57.49,1.17.35,1.73.35,3.22.01,6.45.01,9.67,0,.38,0,.77-.01,1.15-.04.39-.03.62-.26.67-.63.04-.33.06-.67.06-1.01,0-2.12.02-4.23-.01-6.35-.01-.67-.08-1.34-.19-2.01-.31-1.96-1.4-3.37-3.21-4.14-2.12-.9-4.31-.94-6.47-.1-1.69.65-2.76,1.9-3.2,3.64-.17.69-.27,1.42-.29,2.14-.04,2.36-.02,4.71-.01,7.07.02.39.08.77.1,1.08Z"/>
  <path class="cls-1" d="M.39,55.38c.11-.04.24-.12.38-.12,3.95,0,7.9-.02,11.86-.02.23,0,.46.07.71.11.3.52.2,1.06.2,1.58.01,4.24.01,8.48.01,12.73v11.86c0,1.8.01,1.81,1.87,1.81,1.4,0,2.8.01,4.19-.02.76-.02.94-.21.98-.94.03-.43.01-.87.01-1.3v-21.26c0-.57.02-1.14.03-1.65.53-.48,1.08-.36,1.59-.37,3.33,0,6.65,0,9.98,0,.24,0,.48,0,.72.02.75.06.93.22.98.96.03.48.02.96.02,1.45v20.97c0,.67-.05,1.34.19,1.95,1.37.29,5.57.26,6.73-.03.06-.24.17-.51.2-.79.04-.48.03-.96.03-1.45v-24.29c0-.62.04-1.24.06-1.9.36-.08.63-.2.9-.2,3.81,0,7.62,0,11.42,0,.23,0,.46.07.76.12.05.31.13.59.14.86.02.38.01.77.01,1.16v42.37c0,.62.08,1.25-.14,1.9-.28.06-.55.16-.83.18-.38.03-.77.01-1.16.01H2.19c-.48,0-.96-.01-1.44-.04-.32-.02-.54-.22-.58-.55s-.05-.67-.05-1.01v-42.66c.02-.48-.07-.98.27-1.43Z"/>
  <path class="cls-1" d="M.21,319.62c.33-.18.57-.35.83-.46,17.63-7.15,35.26-14.3,52.89-21.45.08-.03.19.02.34.04.03.21.08.44.09.67.13,3.75.05,16.55-.13,17.85-.26.12-.54.29-.85.4-1.63.59-3.27,1.16-4.9,1.74-.54.19-1.07.42-1.65.65-.04.42-.1.79-.1,1.17-.01,6.08,0,12.15,0,18.23,0,.19.01.39.01.58-.01.5.24.79.71.96,1.77.64,3.53,1.29,5.29,1.94.49.18.98.38,1.5.57.05.38.12.71.12,1.04.01,5.3.01,10.61,0,15.91,0,.32-.07.65-.1.95-.59.13-1-.18-1.43-.36-10.16-4.28-20.32-8.57-30.47-12.86-6.92-2.92-13.84-5.85-20.76-8.77-.22-.09-.44-.21-.67-.28-.62-.18-.82-.62-.8-1.21,0-.24,0-.48,0-.72v-15.04c0-.52.05-1.04.08-1.55ZM33.95,323.68c-.72-.1-1.19.19-1.68.36-2.91,1.01-5.81,2.03-8.71,3.05-1.63.57-3.26,1.15-4.89,1.75-.17.06-.29.29-.5.51.33.16.53.29.75.37,4.75,1.71,9.5,3.42,14.25,5.13.21.08.44.09.67.13.11-.2.23-.32.23-.45.03-3.37.04-6.74.05-10.11,0-.23-.1-.46-.17-.74Z"/>
  <path class="cls-1" d="M40.91.12c.45-.06.73-.12,1.01-.12C45.97,0,50.01,0,54.11,0c.1.35.21.61.24.87.04.33.02.67.02,1.01v45.85c0,.57.08,1.15-.13,1.68-.41.34-.87.22-1.29.23-2.8,0-5.59-.02-8.39.02-.88,0-1.54-.25-2.2-.83-7.71-6.71-15.45-13.39-23.18-20.07-1.35-1.17-2.7-2.34-4.05-3.5-.32-.27-.67-.51-.94-.72-.42.12-.42.38-.43.61-.02.43-.01.87-.01,1.3v20.39c0,.57.09,1.16-.2,1.78-.25.04-.53.11-.8.11-3.86,0-7.71,0-11.57,0-.24,0-.47-.03-.78-.06-.09-.28-.21-.54-.24-.81-.04-.38-.02-.77-.02-1.16V2.58C.14,1.96.05,1.33.32.65c.3-.06.62-.17.94-.17,3.04,0,6.08,0,9.11-.02.81,0,1.35.39,1.9.87,5.1,4.42,10.21,8.83,15.31,13.25,3.86,3.34,7.73,6.69,11.6,10.03.42.37.79.84,1.34.96.36-.13.33-.4.34-.62.02-.43.01-.87.01-1.3V1.95c.01-.55.02-1.12.04-1.83Z"/>
  <path class="cls-1" d="M14.15,207.57c.78.29,1.41.2,2.02.2,10.99.01,21.98,0,32.96,0,1.3,0,2.6-.01,3.9.01.37,0,.75.07,1.07.1.35.51.25,1.01.25,1.48.11,10.74.05,14.96-.22,16.06-.48.19-1.01.11-1.53.11-4.43.01-8.87,0-13.3,0h-23.28c-.57,0-1.15-.08-1.72.15-.32.49-.22,1.04-.22,1.55-.01,3.95,0,7.9-.01,11.86,0,.52-.02,1.05-.03,1.64-.37.1-.67.24-.99.25-.72.04-1.45.02-2.17.02H1.92c-.52,0-1.06.07-1.61-.22-.06-.25-.16-.52-.18-.8-.03-.38,0-.77,0-1.16v-44.53c0-2.29-.08-2.13,2.11-2.13,3.37,0,6.75-.01,10.12.01.52,0,1.06-.13,1.6.24.23.46.12.99.12,1.51.01,4,0,8,.01,12,.02.53.05,1.06.07,1.65Z"/>
  <path class="cls-1" d="M54.25,169.91c.05.55.11.93.12,1.31.14,7.05.07,14.86-.15,16.26-.24.05-.51.13-.78.15-.34.03-.67.01-1.01.01H2.1c-.57,0-1.15.1-1.81-.16-.04-.34-.13-.71-.13-1.08,0-5.06,0-10.12,0-15.19,0-.37.08-.74.14-1.17.34-.05.61-.12.89-.14.34-.02.67-.01,1.01-.01h50.19c.55,0,1.12.01,1.86.02Z"/>
</svg>